<svg width="150" height="56" viewBox="0 0 150 56" fill="none" xmlns="http://www.w3.org/2000/svg"><g class="logo-text"><path d="M85.1759 18.326C86.9576 19.1621 88.191 20.2767 89.1503 21.6701C90.1097 23.0635 90.5208 24.8749 90.5208 26.8256C90.5208 28.7763 90.1097 30.5877 89.1503 31.9811C88.191 33.5138 86.9576 34.6284 85.1759 35.3251C83.3943 36.1611 81.4756 36.4398 79.1458 36.4398H73.3897C73.2527 36.4398 73.1156 36.5792 73.1156 36.7185V44.1033C73.1156 44.2427 72.9786 44.382 72.8415 44.382H68.456C68.319 44.382 68.1819 44.2427 68.1819 44.1033V17.3507C68.1819 17.2114 68.319 17.072 68.456 17.072H79.2828C81.4756 17.072 83.3943 17.49 85.1759 18.326ZM83.8054 30.8663C84.9018 29.891 85.45 28.637 85.45 26.8256C85.45 25.0142 84.9018 23.7602 83.8054 22.7848C82.709 21.8095 81.0645 21.3915 78.8717 21.3915H73.2527C73.1157 21.3915 72.9786 21.5308 72.9786 21.6701V31.9811C72.9786 32.1204 73.1157 32.2597 73.2527 32.2597H78.8717C81.0645 32.2597 82.709 31.8417 83.8054 30.8663Z" fill="#0F2339"></path><path d="M95.7289 15.4H99.9767C100.114 15.4 100.251 15.5394 100.251 15.6787V44.1034C100.251 44.2427 100.114 44.3821 99.9767 44.3821H95.7289C95.5919 44.3821 95.4548 44.2427 95.4548 44.1034V15.6787C95.4548 15.5394 95.5919 15.4 95.7289 15.4Z" fill="#0F2339"></path><path d="M121.22 25.5716C122.864 27.1043 123.687 29.1943 123.687 32.2597V44.2427C123.687 44.382 123.55 44.5213 123.413 44.5213H119.438C119.301 44.5213 119.164 44.382 119.164 44.2427V42.7099C118.342 43.4066 117.794 43.6853 116.697 44.1033C115.601 44.5213 114.23 44.8 112.723 44.8C111.215 44.8 109.845 44.5213 108.748 43.964C107.652 43.4066 106.693 42.71 106.144 41.7346C105.459 40.7593 105.185 39.6445 105.185 38.5298C105.185 36.7185 105.87 35.1858 107.241 34.0711C108.611 32.9564 110.804 32.399 113.682 32.399H119.027V32.1204C119.027 30.727 118.616 29.6123 117.794 28.7763C116.971 27.9403 115.601 27.6616 113.956 27.6616C112.86 27.6616 111.626 27.8009 110.53 28.2189C109.571 28.4976 108.611 29.055 107.926 29.473C107.789 29.6123 107.652 29.473 107.515 29.3336L105.87 26.2682C105.87 26.1289 105.87 25.9895 106.007 25.8502C107.104 25.1535 108.2 24.4569 109.708 24.0388C111.215 23.6208 112.86 23.3422 114.504 23.3422C117.382 23.3422 119.712 24.0389 121.22 25.5716ZM116.834 40.3412C117.794 39.7839 118.342 39.2266 118.753 38.2512V38.1119V35.7431C118.753 35.6038 118.616 35.4645 118.479 35.4645H113.819C111.078 35.4645 109.434 36.4398 109.434 38.2512C109.434 39.0872 109.845 39.9232 110.53 40.3412C111.215 40.8986 112.312 41.0379 113.545 41.0379C114.916 41.1773 116.012 40.8986 116.834 40.3412Z" fill="#0F2339"></path><path d="M147.67 25.711C149.178 27.2437 150 29.473 150 32.5385V44.2427C150 44.3821 149.863 44.5214 149.726 44.5214H145.477C145.34 44.5214 145.203 44.3821 145.203 44.2427V33.0958C145.203 31.2844 144.792 29.891 143.97 28.9157C143.147 27.9403 141.914 27.5223 140.407 27.5223C138.625 27.5223 137.254 28.0797 136.158 29.1944C135.199 30.3091 134.65 31.8418 134.65 33.7925V44.1034C134.65 44.2427 134.513 44.3821 134.376 44.3821H130.128C129.991 44.3821 129.854 44.2427 129.854 44.1034V23.7602C129.854 23.6209 129.991 23.4816 130.128 23.4816H134.102C134.239 23.4816 134.376 23.6209 134.376 23.7602V25.8503C135.199 24.8749 136.021 24.4569 137.391 23.8996C138.625 23.4816 139.995 23.2029 141.503 23.2029C143.97 23.3422 146.163 24.1783 147.67 25.711Z" fill="#0F2339"></path></g><path d="M44.7 42.42C44.616 42.42 44.5319 42.42 44.5319 42.42L37.644 36.372C37.56 36.288 37.3079 36.372 37.3919 36.54L39.66 45.444C39.66 45.528 39.6599 45.612 39.5759 45.612L34.368 48.888C34.284 48.888 34.2 48.888 34.2 48.888L20.34 37.212C20.256 37.128 20.256 36.96 20.34 36.96L25.2119 33.852C25.2959 33.852 25.38 33.852 25.38 33.852L32.8559 40.32C32.9399 40.404 33.192 40.32 33.108 40.152L30.6719 30.576C30.6719 30.492 30.6719 30.408 30.7559 30.408L35.208 27.636C35.292 27.636 35.3759 27.636 35.3759 27.636L42.8519 34.188C42.9359 34.272 43.188 34.188 43.104 34.02L40.584 24.36C40.584 24.276 40.584 24.192 40.668 24.192L43.86 22.176C42.768 21.42 41.508 21 40.08 21H19.92C16.224 21 13.2 24.024 13.2 27.72V47.88C13.2 51.576 16.224 54.6 19.92 54.6H40.08C43.776 54.6 46.8 51.576 46.8 47.88V41.16L44.7 42.42Z" fill="#004CFF"></path><path d="M44.249 11.6188C44.249 11.6188 38.5661 1.68593 32.8832 1.96691C27.2003 2.2479 20.433 0 20.433 0C20.433 0 9.72604 1.86857 6.52769 25.8509L6.11588 41.0804L9.54759 41.5019L13.5558 29.7987L22.341 19.3179L44.249 11.6188Z" fill="#ED2D2D"></path><path d="M18.3257 9.5218C18.3257 11.35 14.1081 29.4548 13.86 29.3278L11.2551 36.5646C11.6272 31.2324 11.2551 27.0423 12.7436 20.5673C13.2621 18.3121 14.9764 9.90283 16.0929 8.37916C16.6778 7.58089 18.3257 7.69357 18.3257 9.5218Z" fill="#C00011"></path><path d="M11.9774 16.3535C11.9087 15.7494 18.0446 10.2982 22.7804 9.6941C22.6294 9.90484 21.6685 11.2114 21.6685 11.2114C25.9787 8.20487 33.0206 8.72469 32.6912 8.69659C32.3617 8.6685 30.9753 10.5371 30.9753 10.5371C30.9753 10.5371 36.5209 9.44121 38.1407 9.65195C39.7605 9.86269 43.9197 11.5627 43.9197 11.5627C49.1359 11.3519 50.7145 18.6998 50.7145 18.6998L49.6987 18.2923C49.6987 18.2923 53.6932 25.879 50.7145 29.6583C47.7358 33.4375 46.9671 32.7913 46.9671 32.7913L46.7474 31.021L45.512 31.2458C45.512 31.2458 42.5607 25.7947 37.5779 26.3848L38.4564 25.2889C38.4564 25.2889 30.6047 25.2468 29.3693 26.3848C28.1338 27.5228 24.9355 25.5699 24.9355 25.5699C24.9355 25.5699 20.9822 27.1434 18.4702 25.5699C18.4702 25.5699 16.0405 31.0913 15.3679 31.3582C14.6953 31.6252 6.50036 31.8921 11.0028 15.5667L11.9774 16.3535Z" fill="#E3ECFF"></path><path d="M12.691 17.3513C12.6224 16.8876 18.7583 12.3918 23.2332 11.9282C23.0959 12.0827 22.19 13.0943 22.19 13.0943C26.2668 10.7762 32.8969 11.1695 32.5949 11.1555C32.2929 11.1414 30.9752 12.5745 30.9752 12.5745C30.9752 12.5745 36.2051 11.7315 37.7425 11.8861C39.2799 12.0406 43.2058 13.3612 43.2058 13.3612C48.1337 13.2067 49.6299 18.8826 49.6299 18.8826L48.669 18.5595C48.669 18.5595 52.2517 24.2495 49.6299 27.3404C47.8592 29.4337 46.0884 29.7709 46.0884 29.7709L45.8825 28.3941L44.7157 28.5767C44.7157 28.5767 41.9292 24.3619 37.2346 24.8115L38.0582 23.9685C38.0582 23.9685 30.6457 23.9264 29.4789 24.8115C28.3121 25.6966 25.2922 24.1793 25.2922 24.1793C25.2922 24.1793 20.7349 25.1908 18.3602 23.9826C18.3602 23.9826 16.5483 28.5065 15.9031 28.7172C15.2579 28.9279 7.35127 29.504 11.6066 16.8876L12.691 17.3513Z" fill="white"></path><path d="M3.05499 48.3299L2.27256 48.7092C1.55876 46.8406 2.20392 45.534 2.20392 45.534L1.36659 45.7307C1.29796 44.1151 2.51965 43.0614 2.51965 43.0614H1.68231L2.72555 41.2911C3.90606 39.4647 8.55945 40.7151 8.55945 40.7151C8.55945 40.7151 11.9912 39.6614 12.9383 41.8531C13.8855 44.0448 13.7757 44.9861 13.7757 44.9861L13.1168 44.4944C13.1168 44.4944 14.0639 47.9365 11.5382 49.791L11.2774 48.8356C11.2774 48.8356 8.51827 51.5331 7.15932 51.8001L3.05499 48.3299Z" fill="#E3ECFF"></path><path d="M4.41394 47.1922L3.86487 47.4591C3.35697 46.1385 3.82369 45.1972 3.82369 45.1972L3.23343 45.3377C3.19225 44.1856 4.04331 43.441 4.04331 43.441H3.45306L4.18058 42.1906C5.00419 40.884 8.27118 41.7832 8.27118 41.7832C8.27118 41.7832 10.6734 41.0386 11.3323 42.5981C11.9911 44.1575 11.9225 44.8179 11.9225 44.8179L11.4695 44.4666C11.4695 44.4666 12.1284 46.9112 10.3577 48.2319L10.1792 47.5575C10.1792 47.5575 8.24373 49.4823 7.29658 49.6649L4.41394 47.1922Z" fill="white"></path></svg>